<svg xmlns="http://www.w3.org/2000/svg" viewBox="0 0 64 64">
  <defs>
    <linearGradient id="g" x1="0%" y1="0%" x2="100%" y2="100%">
      <stop offset="0%" stop-color="#c9a227"/>
      <stop offset="100%" stop-color="#f7d06b"/>
    </linearGradient>
  </defs>
  <rect width="64" height="64" rx="14" fill="#0a0a1a"/>
  <circle cx="32" cy="32" r="26" fill="none" stroke="url(#g)" stroke-width="1.2" opacity="0.2"/>
  <path d="M20 44 Q24 20 32 14 Q40 20 44 44 Q40 38 32 36 Q24 38 20 44Z" fill="url(#g)" opacity="0.9"/>
  <path d="M26 30 Q29 12 32 8 Q35 12 38 30" fill="none" stroke="url(#g)" stroke-width="1.8"/>
  <circle cx="28" cy="28" r="2.2" fill="#0a0a1a"/>
  <circle cx="36" cy="28" r="2.2" fill="#0a0a1a"/>
  <circle cx="28.4" cy="27.6" r="0.7" fill="#f7d06b"/>
  <circle cx="36.4" cy="27.6" r="0.7" fill="#f7d06b"/>
  <path d="M14 42 Q17 34 22 30" fill="none" stroke="url(#g)" stroke-width="1.5" stroke-linecap="round"/>
  <path d="M50 42 Q47 34 42 30" fill="none" stroke="url(#g)" stroke-width="1.5" stroke-linecap="round"/>
  <path d="M17 46 Q15 40 19 36" fill="none" stroke="url(#g)" stroke-width="1" opacity="0.4"/>
  <path d="M47 46 Q49 40 45 36" fill="none" stroke="url(#g)" stroke-width="1" opacity="0.4"/>
</svg>
